<svg xmlns="http://www.w3.org/2000/svg" xmlns:xlink="http://www.w3.org/1999/xlink" width="1080" zoomAndPan="magnify" viewBox="0 0 810 809.999993" height="1080" preserveAspectRatio="xMidYMid meet" version="1.0"><rect x="-81" width="972" fill="#ffffff" y="-80.999999" height="971.999992" fill-opacity="1"/><rect x="-81" width="972" fill="#ffffff" y="-80.999999" height="971.999992" fill-opacity="1"/><path fill="#7c45e9" d="M 531.5625 273.375 L 278.4375 273.375 C 277.609375 273.375 276.78125 273.414062 275.957031 273.496094 C 275.132812 273.578125 274.3125 273.699219 273.5 273.863281 C 272.6875 274.023438 271.882812 274.222656 271.089844 274.464844 C 270.296875 274.707031 269.515625 274.984375 268.75 275.300781 C 267.984375 275.617188 267.238281 275.972656 266.503906 276.363281 C 265.773438 276.753906 265.0625 277.179688 264.375 277.640625 C 263.683594 278.101562 263.019531 278.59375 262.378906 279.121094 C 261.738281 279.648438 261.125 280.203125 260.539062 280.789062 C 259.953125 281.375 259.398438 281.988281 258.871094 282.628906 C 258.34375 283.269531 257.851562 283.933594 257.390625 284.625 C 256.929688 285.3125 256.503906 286.023438 256.113281 286.753906 C 255.722656 287.488281 255.367188 288.234375 255.050781 289 C 254.734375 289.765625 254.457031 290.546875 254.214844 291.339844 C 253.972656 292.132812 253.773438 292.9375 253.613281 293.75 C 253.449219 294.5625 253.328125 295.382812 253.246094 296.207031 C 253.164062 297.03125 253.125 297.859375 253.125 298.6875 L 253.125 321.164062 C 254.84375 319.605469 256.6875 318.21875 258.664062 317.003906 C 260.636719 315.789062 262.707031 314.765625 264.871094 313.933594 C 267.035156 313.101562 269.257812 312.480469 271.539062 312.058594 C 273.820312 311.640625 276.117188 311.4375 278.4375 311.445312 L 278.4375 298.6875 L 531.5625 298.6875 L 531.5625 311.445312 C 533.882812 311.4375 536.179688 311.640625 538.460938 312.058594 C 540.742188 312.480469 542.964844 313.101562 545.128906 313.933594 C 547.292969 314.765625 549.363281 315.789062 551.335938 317.003906 C 553.3125 318.21875 555.15625 319.605469 556.875 321.164062 L 556.875 298.6875 C 556.875 297.859375 556.835938 297.03125 556.753906 296.207031 C 556.671875 295.382812 556.550781 294.5625 556.386719 293.75 C 556.226562 292.9375 556.027344 292.132812 555.785156 291.339844 C 555.542969 290.546875 555.265625 289.765625 554.949219 289 C 554.632812 288.234375 554.277344 287.488281 553.886719 286.753906 C 553.496094 286.023438 553.070312 285.3125 552.609375 284.625 C 552.148438 283.933594 551.65625 283.269531 551.128906 282.628906 C 550.601562 281.988281 550.046875 281.375 549.460938 280.789062 C 548.875 280.203125 548.261719 279.648438 547.621094 279.121094 C 546.980469 278.59375 546.316406 278.101562 545.625 277.640625 C 544.9375 277.179688 544.226562 276.753906 543.496094 276.363281 C 542.761719 275.972656 542.015625 275.617188 541.25 275.300781 C 540.484375 274.984375 539.703125 274.707031 538.910156 274.464844 C 538.117188 274.222656 537.3125 274.023438 536.5 273.863281 C 535.6875 273.699219 534.867188 273.578125 534.042969 273.496094 C 533.21875 273.414062 532.390625 273.375 531.5625 273.375 Z M 531.5625 324 L 278.4375 324 C 277.609375 324 276.78125 324.039062 275.957031 324.121094 C 275.132812 324.203125 274.3125 324.324219 273.5 324.488281 C 272.6875 324.648438 271.882812 324.847656 271.089844 325.089844 C 270.296875 325.332031 269.515625 325.609375 268.75 325.925781 C 267.984375 326.242188 267.238281 326.597656 266.503906 326.988281 C 265.773438 327.378906 265.0625 327.804688 264.375 328.265625 C 263.683594 328.726562 263.019531 329.21875 262.378906 329.746094 C 261.738281 330.273438 261.125 330.828125 260.539062 331.414062 C 259.953125 332 259.398438 332.613281 258.871094 333.253906 C 258.34375 333.894531 257.851562 334.558594 257.390625 335.25 C 256.929688 335.9375 256.503906 336.648438 256.113281 337.378906 C 255.722656 338.113281 255.367188 338.859375 255.050781 339.625 C 254.734375 340.390625 254.457031 341.171875 254.214844 341.964844 C 253.972656 342.757812 253.773438 343.5625 253.613281 344.375 C 253.449219 345.1875 253.328125 346.007812 253.246094 346.832031 C 253.164062 347.65625 253.125 348.484375 253.125 349.3125 L 253.125 371.789062 C 254.84375 370.230469 256.6875 368.84375 258.664062 367.628906 C 260.636719 366.414062 262.707031 365.390625 264.871094 364.558594 C 267.035156 363.726562 269.257812 363.105469 271.539062 362.683594 C 273.820312 362.265625 276.117188 362.0625 278.4375 362.070312 L 278.4375 349.3125 L 531.5625 349.3125 L 531.5625 362.070312 C 533.882812 362.0625 536.179688 362.265625 538.460938 362.683594 C 540.742188 363.105469 542.964844 363.726562 545.128906 364.558594 C 547.292969 365.390625 549.363281 366.414062 551.335938 367.628906 C 553.3125 368.84375 555.15625 370.230469 556.875 371.789062 L 556.875 349.3125 C 556.875 348.484375 556.835938 347.65625 556.753906 346.832031 C 556.671875 346.007812 556.550781 345.1875 556.386719 344.375 C 556.226562 343.5625 556.027344 342.757812 555.785156 341.964844 C 555.542969 341.171875 555.265625 340.390625 554.949219 339.625 C 554.632812 338.859375 554.277344 338.113281 553.886719 337.378906 C 553.496094 336.648438 553.070312 335.9375 552.609375 335.25 C 552.148438 334.558594 551.65625 333.894531 551.128906 333.253906 C 550.601562 332.613281 550.046875 332 549.460938 331.414062 C 548.875 330.828125 548.261719 330.273438 547.621094 329.746094 C 546.980469 329.21875 546.316406 328.726562 545.625 328.265625 C 544.9375 327.804688 544.226562 327.378906 543.496094 326.988281 C 542.761719 326.597656 542.015625 326.242188 541.25 325.925781 C 540.484375 325.609375 539.703125 325.332031 538.910156 325.089844 C 538.117188 324.847656 537.3125 324.648438 536.5 324.488281 C 535.6875 324.324219 534.867188 324.203125 534.042969 324.121094 C 533.21875 324.039062 532.390625 324 531.5625 324 Z M 531.5625 374.625 L 455.625 374.625 C 455.566406 376.226562 455.429688 377.824219 455.214844 379.414062 C 455 381.003906 454.707031 382.578125 454.339844 384.140625 C 453.96875 385.703125 453.527344 387.242188 453.007812 388.761719 C 452.488281 390.277344 451.894531 391.765625 451.230469 393.226562 C 450.5625 394.6875 449.828125 396.109375 449.023438 397.5 C 448.21875 398.886719 447.351562 400.230469 446.414062 401.535156 C 445.476562 402.835938 444.480469 404.089844 443.421875 405.296875 C 442.363281 406.503906 441.25 407.652344 440.078125 408.75 C 438.90625 409.847656 437.683594 410.882812 436.410156 411.859375 C 435.136719 412.835938 433.820312 413.75 432.460938 414.597656 C 431.097656 415.445312 429.699219 416.222656 428.257812 416.933594 C 426.820312 417.644531 425.351562 418.285156 423.851562 418.851562 C 422.351562 419.417969 420.824219 419.914062 419.277344 420.332031 C 417.726562 420.75 416.164062 421.089844 414.582031 421.355469 C 413 421.621094 411.40625 421.808594 409.804688 421.917969 C 408.207031 422.027344 406.605469 422.058594 405 422.011719 C 403.394531 422.058594 401.792969 422.027344 400.195312 421.917969 C 398.59375 421.808594 397 421.621094 395.417969 421.355469 C 393.835938 421.089844 392.273438 420.75 390.722656 420.332031 C 389.175781 419.914062 387.648438 419.417969 386.148438 418.851562 C 384.648438 418.285156 383.179688 417.644531 381.742188 416.933594 C 380.300781 416.222656 378.902344 415.445312 377.539062 414.597656 C 376.179688 413.75 374.863281 412.835938 373.589844 411.859375 C 372.316406 410.882812 371.09375 409.847656 369.921875 408.75 C 368.75 407.652344 367.636719 406.503906 366.578125 405.296875 C 365.519531 404.089844 364.523438 402.835938 363.585938 401.535156 C 362.648438 400.230469 361.78125 398.886719 360.976562 397.5 C 360.171875 396.109375 359.4375 394.6875 358.769531 393.226562 C 358.105469 391.765625 357.511719 390.277344 356.992188 388.761719 C 356.472656 387.242188 356.03125 385.703125 355.660156 384.140625 C 355.292969 382.578125 355 381.003906 354.785156 379.414062 C 354.570312 377.824219 354.433594 376.226562 354.375 374.625 L 278.4375 374.625 C 277.609375 374.625 276.78125 374.664062 275.957031 374.746094 C 275.132812 374.828125 274.3125 374.949219 273.5 375.113281 C 272.6875 375.273438 271.882812 375.472656 271.089844 375.714844 C 270.296875 375.957031 269.515625 376.234375 268.75 376.550781 C 267.984375 376.867188 267.238281 377.222656 266.503906 377.613281 C 265.773438 378.003906 265.0625 378.429688 264.375 378.890625 C 263.683594 379.351562 263.019531 379.84375 262.378906 380.371094 C 261.738281 380.898438 261.125 381.453125 260.539062 382.039062 C 259.953125 382.625 259.398438 383.238281 258.871094 383.878906 C 258.34375 384.519531 257.851562 385.183594 257.390625 385.875 C 256.929688 386.5625 256.503906 387.273438 256.113281 388.003906 C 255.722656 388.738281 255.367188 389.484375 255.050781 390.25 C 254.734375 391.015625 254.457031 391.796875 254.214844 392.589844 C 253.972656 393.382812 253.773438 394.1875 253.613281 395 C 253.449219 395.8125 253.328125 396.632812 253.246094 397.457031 C 253.164062 398.28125 253.125 399.109375 253.125 399.9375 L 253.125 511.3125 C 253.125 512.140625 253.164062 512.96875 253.246094 513.792969 C 253.328125 514.617188 253.449219 515.4375 253.613281 516.25 C 253.773438 517.0625 253.972656 517.867188 254.214844 518.660156 C 254.457031 519.453125 254.734375 520.234375 255.050781 521 C 255.367188 521.765625 255.722656 522.511719 256.113281 523.246094 C 256.503906 523.976562 256.929688 524.6875 257.390625 525.375 C 257.851562 526.066406 258.34375 526.730469 258.871094 527.371094 C 259.398438 528.011719 259.953125 528.625 260.539062 529.210938 C 261.125 529.796875 261.738281 530.351562 262.378906 530.878906 C 263.019531 531.40625 263.683594 531.898438 264.375 532.359375 C 265.0625 532.820312 265.773438 533.246094 266.503906 533.636719 C 267.238281 534.027344 267.984375 534.382812 268.75 534.699219 C 269.515625 535.015625 270.296875 535.292969 271.089844 535.535156 C 271.882812 535.777344 272.6875 535.976562 273.5 536.136719 C 274.3125 536.300781 275.132812 536.421875 275.957031 536.503906 C 276.78125 536.585938 277.609375 536.625 278.4375 536.625 L 531.5625 536.625 C 532.390625 536.625 533.21875 536.585938 534.042969 536.503906 C 534.867188 536.421875 535.6875 536.300781 536.5 536.136719 C 537.3125 535.976562 538.117188 535.777344 538.910156 535.535156 C 539.703125 535.292969 540.484375 535.015625 541.25 534.699219 C 542.015625 534.382812 542.761719 534.027344 543.496094 533.636719 C 544.226562 533.246094 544.9375 532.820312 545.625 532.359375 C 546.316406 531.898438 546.980469 531.40625 547.621094 530.878906 C 548.261719 530.351562 548.875 529.796875 549.460938 529.210938 C 550.046875 528.625 550.601562 528.011719 551.128906 527.371094 C 551.65625 526.730469 552.148438 526.066406 552.609375 525.375 C 553.070312 524.6875 553.496094 523.976562 553.886719 523.246094 C 554.277344 522.511719 554.632812 521.765625 554.949219 521 C 555.265625 520.234375 555.542969 519.453125 555.785156 518.660156 C 556.027344 517.867188 556.226562 517.0625 556.386719 516.25 C 556.550781 515.4375 556.671875 514.617188 556.753906 513.792969 C 556.835938 512.96875 556.875 512.140625 556.875 511.3125 L 556.875 399.9375 C 556.875 399.109375 556.835938 398.28125 556.753906 397.457031 C 556.671875 396.632812 556.550781 395.8125 556.386719 395 C 556.226562 394.1875 556.027344 393.382812 555.785156 392.589844 C 555.542969 391.796875 555.265625 391.015625 554.949219 390.25 C 554.632812 389.484375 554.277344 388.738281 553.886719 388.003906 C 553.496094 387.273438 553.070312 386.5625 552.609375 385.875 C 552.148438 385.183594 551.65625 384.519531 551.128906 383.878906 C 550.601562 383.238281 550.046875 382.625 549.460938 382.039062 C 548.875 381.453125 548.261719 380.898438 547.621094 380.371094 C 546.980469 379.84375 546.316406 379.351562 545.625 378.890625 C 544.9375 378.429688 544.226562 378.003906 543.496094 377.613281 C 542.761719 377.222656 542.015625 376.867188 541.25 376.550781 C 540.484375 376.234375 539.703125 375.957031 538.910156 375.714844 C 538.117188 375.472656 537.3125 375.273438 536.5 375.113281 C 535.6875 374.949219 534.867188 374.828125 534.042969 374.746094 C 533.21875 374.664062 532.390625 374.625 531.5625 374.625 Z M 531.5625 511.3125 L 278.4375 511.3125 L 278.4375 399.9375 L 333.71875 399.9375 C 334.433594 401.691406 335.214844 403.417969 336.058594 405.113281 C 336.902344 406.808594 337.808594 408.472656 338.777344 410.101562 C 339.746094 411.726562 340.773438 413.316406 341.859375 414.871094 C 342.949219 416.421875 344.089844 417.929688 345.289062 419.398438 C 346.488281 420.863281 347.742188 422.28125 349.046875 423.65625 C 350.355469 425.027344 351.707031 426.351562 353.113281 427.621094 C 354.515625 428.894531 355.96875 430.113281 357.460938 431.277344 C 358.957031 432.4375 360.492188 433.546875 362.070312 434.59375 C 363.648438 435.644531 365.261719 436.632812 366.914062 437.558594 C 368.566406 438.488281 370.25 439.355469 371.964844 440.15625 C 373.683594 440.957031 375.425781 441.695312 377.199219 442.367188 C 378.96875 443.042969 380.761719 443.648438 382.578125 444.183594 C 384.394531 444.722656 386.230469 445.195312 388.082031 445.59375 C 389.933594 445.996094 391.796875 446.328125 393.671875 446.59375 C 395.546875 446.855469 397.433594 447.046875 399.324219 447.167969 C 401.214844 447.289062 403.105469 447.34375 405 447.324219 C 406.894531 447.34375 408.789062 447.296875 410.679688 447.179688 C 412.570312 447.058594 414.457031 446.871094 416.332031 446.609375 C 418.210938 446.347656 420.074219 446.019531 421.929688 445.621094 C 423.78125 445.21875 425.617188 444.75 427.433594 444.214844 C 429.25 443.675781 431.046875 443.074219 432.816406 442.402344 C 434.589844 441.730469 436.335938 440.992188 438.050781 440.191406 C 439.769531 439.390625 441.453125 438.523438 443.105469 437.597656 C 444.757812 436.667969 446.375 435.679688 447.953125 434.628906 C 449.53125 433.582031 451.066406 432.472656 452.5625 431.308594 C 454.058594 430.144531 455.507812 428.925781 456.914062 427.652344 C 458.316406 426.378906 459.671875 425.058594 460.976562 423.683594 C 462.28125 422.308594 463.535156 420.886719 464.730469 419.417969 C 465.929688 417.953125 467.074219 416.441406 468.160156 414.886719 C 469.242188 413.332031 470.269531 411.742188 471.234375 410.113281 C 472.203125 408.480469 473.105469 406.816406 473.949219 405.117188 C 474.789062 403.421875 475.566406 401.695312 476.28125 399.9375 L 531.5625 399.9375 Z M 531.5625 511.3125 " fill-opacity="1" fill-rule="nonzero"/><path fill="#ff7acc" d="M 531.5625 282.53125 L 278.4375 282.53125 C 277.609375 282.53125 276.78125 282.570312 275.957031 282.652344 C 275.132812 282.734375 274.3125 282.855469 273.5 283.015625 C 272.6875 283.179688 271.882812 283.378906 271.089844 283.621094 C 270.296875 283.863281 269.515625 284.140625 268.75 284.457031 C 267.984375 284.773438 267.238281 285.128906 266.503906 285.519531 C 265.773438 285.910156 265.0625 286.335938 264.375 286.796875 C 263.683594 287.257812 263.019531 287.75 262.378906 288.277344 C 261.738281 288.800781 261.125 289.359375 260.539062 289.945312 C 259.953125 290.53125 259.398438 291.144531 258.871094 291.785156 C 258.34375 292.425781 257.851562 293.089844 257.390625 293.78125 C 256.929688 294.46875 256.503906 295.179688 256.113281 295.910156 C 255.722656 296.640625 255.367188 297.390625 255.050781 298.15625 C 254.734375 298.921875 254.457031 299.703125 254.214844 300.496094 C 253.972656 301.289062 253.773438 302.09375 253.613281 302.90625 C 253.449219 303.71875 253.328125 304.539062 253.246094 305.363281 C 253.164062 306.1875 253.125 307.015625 253.125 307.84375 L 253.125 330.320312 C 254.84375 328.761719 256.6875 327.375 258.664062 326.160156 C 260.636719 324.945312 262.707031 323.921875 264.871094 323.089844 C 267.035156 322.257812 269.257812 321.632812 271.539062 321.214844 C 273.820312 320.796875 276.117188 320.59375 278.4375 320.601562 L 278.4375 307.84375 L 531.5625 307.84375 L 531.5625 320.601562 C 533.882812 320.59375 536.179688 320.796875 538.460938 321.214844 C 540.742188 321.632812 542.964844 322.257812 545.128906 323.089844 C 547.292969 323.921875 549.363281 324.945312 551.335938 326.160156 C 553.3125 327.375 555.15625 328.761719 556.875 330.320312 L 556.875 307.84375 C 556.875 307.015625 556.835938 306.1875 556.753906 305.363281 C 556.671875 304.539062 556.550781 303.71875 556.386719 302.90625 C 556.226562 302.09375 556.027344 301.289062 555.785156 300.496094 C 555.542969 299.703125 555.265625 298.921875 554.949219 298.15625 C 554.632812 297.390625 554.277344 296.640625 553.886719 295.910156 C 553.496094 295.179688 553.070312 294.46875 552.609375 293.78125 C 552.148438 293.089844 551.65625 292.425781 551.128906 291.785156 C 550.601562 291.144531 550.046875 290.53125 549.460938 289.945312 C 548.875 289.359375 548.261719 288.800781 547.621094 288.277344 C 546.980469 287.75 546.316406 287.257812 545.625 286.796875 C 544.9375 286.335938 544.226562 285.910156 543.496094 285.519531 C 542.761719 285.128906 542.015625 284.773438 541.25 284.457031 C 540.484375 284.140625 539.703125 283.863281 538.910156 283.621094 C 538.117188 283.378906 537.3125 283.179688 536.5 283.015625 C 535.6875 282.855469 534.867188 282.734375 534.042969 282.652344 C 533.21875 282.570312 532.390625 282.53125 531.5625 282.53125 Z M 531.5625 333.15625 L 278.4375 333.15625 C 277.609375 333.15625 276.78125 333.195312 275.957031 333.277344 C 275.132812 333.359375 274.3125 333.480469 273.5 333.640625 C 272.6875 333.804688 271.882812 334.003906 271.089844 334.246094 C 270.296875 334.488281 269.515625 334.765625 268.75 335.082031 C 267.984375 335.398438 267.238281 335.753906 266.503906 336.144531 C 265.773438 336.535156 265.0625 336.960938 264.375 337.421875 C 263.683594 337.882812 263.019531 338.375 262.378906 338.902344 C 261.738281 339.425781 261.125 339.984375 260.539062 340.570312 C 259.953125 341.15625 259.398438 341.769531 258.871094 342.410156 C 258.34375 343.050781 257.851562 343.714844 257.390625 344.40625 C 256.929688 345.09375 256.503906 345.804688 256.113281 346.535156 C 255.722656 347.265625 255.367188 348.015625 255.050781 348.78125 C 254.734375 349.546875 254.457031 350.328125 254.214844 351.121094 C 253.972656 351.914062 253.773438 352.71875 253.613281 353.53125 C 253.449219 354.34375 253.328125 355.164062 253.246094 355.988281 C 253.164062 356.8125 253.125 357.640625 253.125 358.46875 L 253.125 380.945312 C 254.84375 379.386719 256.6875 378 258.664062 376.785156 C 260.636719 375.570312 262.707031 374.546875 264.871094 373.714844 C 267.035156 372.882812 269.257812 372.257812 271.539062 371.839844 C 273.820312 371.421875 276.117188 371.21875 278.4375 371.226562 L 278.4375 358.46875 L 531.5625 358.46875 L 531.5625 371.226562 C 533.882812 371.21875 536.179688 371.421875 538.460938 371.839844 C 540.742188 372.257812 542.964844 372.882812 545.128906 373.714844 C 547.292969 374.546875 549.363281 375.570312 551.335938 376.785156 C 553.3125 378 555.15625 379.386719 556.875 380.945312 L 556.875 358.46875 C 556.875 357.640625 556.835938 356.8125 556.753906 355.988281 C 556.671875 355.164062 556.550781 354.34375 556.386719 353.53125 C 556.226562 352.71875 556.027344 351.914062 555.785156 351.121094 C 555.542969 350.328125 555.265625 349.546875 554.949219 348.78125 C 554.632812 348.015625 554.277344 347.265625 553.886719 346.535156 C 553.496094 345.804688 553.070312 345.09375 552.609375 344.40625 C 552.148438 343.714844 551.65625 343.050781 551.128906 342.410156 C 550.601562 341.769531 550.046875 341.15625 549.460938 340.570312 C 548.875 339.984375 548.261719 339.425781 547.621094 338.902344 C 546.980469 338.375 546.316406 337.882812 545.625 337.421875 C 544.9375 336.960938 544.226562 336.535156 543.496094 336.144531 C 542.761719 335.753906 542.015625 335.398438 541.25 335.082031 C 540.484375 334.765625 539.703125 334.488281 538.910156 334.246094 C 538.117188 334.003906 537.3125 333.804688 536.5 333.640625 C 535.6875 333.480469 534.867188 333.359375 534.042969 333.277344 C 533.21875 333.195312 532.390625 333.15625 531.5625 333.15625 Z M 531.5625 383.78125 L 455.625 383.78125 C 455.566406 385.382812 455.429688 386.980469 455.214844 388.570312 C 455 390.160156 454.707031 391.734375 454.339844 393.296875 C 453.96875 394.859375 453.527344 396.398438 453.007812 397.914062 C 452.488281 399.433594 451.894531 400.921875 451.230469 402.382812 C 450.5625 403.84375 449.828125 405.265625 449.023438 406.652344 C 448.21875 408.042969 447.351562 409.386719 446.414062 410.691406 C 445.476562 411.992188 444.480469 413.246094 443.421875 414.453125 C 442.363281 415.65625 441.25 416.808594 440.078125 417.90625 C 438.90625 419 437.683594 420.039062 436.410156 421.015625 C 435.136719 421.992188 433.820312 422.902344 432.460938 423.75 C 431.097656 424.601562 429.699219 425.378906 428.257812 426.089844 C 426.820312 426.800781 425.351562 427.441406 423.851562 428.007812 C 422.351562 428.574219 420.824219 429.066406 419.277344 429.484375 C 417.726562 429.902344 416.164062 430.246094 414.582031 430.511719 C 413 430.777344 411.40625 430.964844 409.804688 431.074219 C 408.207031 431.183594 406.605469 431.214844 405 431.164062 C 403.394531 431.214844 401.792969 431.183594 400.195312 431.074219 C 398.59375 430.964844 397 430.777344 395.417969 430.511719 C 393.835938 430.246094 392.273438 429.902344 390.722656 429.484375 C 389.175781 429.066406 387.648438 428.574219 386.148438 428.007812 C 384.648438 427.441406 383.179688 426.800781 381.742188 426.089844 C 380.300781 425.378906 378.902344 424.601562 377.539062 423.75 C 376.179688 422.902344 374.863281 421.992188 373.589844 421.015625 C 372.316406 420.039062 371.09375 419 369.921875 417.90625 C 368.75 416.808594 367.636719 415.65625 366.578125 414.453125 C 365.519531 413.246094 364.523438 411.992188 363.585938 410.691406 C 362.648438 409.386719 361.78125 408.042969 360.976562 406.652344 C 360.171875 405.265625 359.4375 403.84375 358.769531 402.382812 C 358.105469 400.921875 357.511719 399.433594 356.992188 397.914062 C 356.472656 396.398438 356.03125 394.859375 355.660156 393.296875 C 355.292969 391.734375 355 390.160156 354.785156 388.570312 C 354.570312 386.980469 354.433594 385.382812 354.375 383.78125 L 278.4375 383.78125 C 277.609375 383.78125 276.78125 383.820312 275.957031 383.902344 C 275.132812 383.984375 274.3125 384.105469 273.5 384.265625 C 272.6875 384.429688 271.882812 384.628906 271.089844 384.871094 C 270.296875 385.113281 269.515625 385.390625 268.75 385.707031 C 267.984375 386.023438 267.238281 386.378906 266.503906 386.769531 C 265.773438 387.160156 265.0625 387.585938 264.375 388.046875 C 263.683594 388.507812 263.019531 389 262.378906 389.527344 C 261.738281 390.050781 261.125 390.609375 260.539062 391.195312 C 259.953125 391.78125 259.398438 392.394531 258.871094 393.035156 C 258.34375 393.675781 257.851562 394.339844 257.390625 395.03125 C 256.929688 395.71875 256.503906 396.429688 256.113281 397.160156 C 255.722656 397.890625 255.367188 398.640625 255.050781 399.40625 C 254.734375 400.171875 254.457031 400.953125 254.214844 401.746094 C 253.972656 402.539062 253.773438 403.34375 253.613281 404.15625 C 253.449219 404.96875 253.328125 405.789062 253.246094 406.613281 C 253.164062 407.4375 253.125 408.265625 253.125 409.09375 L 253.125 520.46875 C 253.125 521.296875 253.164062 522.125 253.246094 522.949219 C 253.328125 523.773438 253.449219 524.59375 253.613281 525.40625 C 253.773438 526.21875 253.972656 527.023438 254.214844 527.816406 C 254.457031 528.609375 254.734375 529.390625 255.050781 530.15625 C 255.367188 530.921875 255.722656 531.667969 256.113281 532.402344 C 256.503906 533.132812 256.929688 533.839844 257.390625 534.53125 C 257.851562 535.21875 258.34375 535.886719 258.871094 536.527344 C 259.398438 537.167969 259.953125 537.78125 260.539062 538.367188 C 261.125 538.953125 261.738281 539.507812 262.378906 540.035156 C 263.019531 540.5625 263.683594 541.054688 264.375 541.515625 C 265.0625 541.976562 265.773438 542.402344 266.503906 542.792969 C 267.238281 543.183594 267.984375 543.535156 268.75 543.855469 C 269.515625 544.171875 270.296875 544.449219 271.089844 544.691406 C 271.882812 544.929688 272.6875 545.132812 273.5 545.292969 C 274.3125 545.457031 275.132812 545.578125 275.957031 545.660156 C 276.78125 545.738281 277.609375 545.78125 278.4375 545.78125 L 531.5625 545.78125 C 532.390625 545.78125 533.21875 545.738281 534.042969 545.660156 C 534.867188 545.578125 535.6875 545.457031 536.5 545.292969 C 537.3125 545.132812 538.117188 544.929688 538.910156 544.691406 C 539.703125 544.449219 540.484375 544.171875 541.25 543.855469 C 542.015625 543.535156 542.761719 543.183594 543.496094 542.792969 C 544.226562 542.402344 544.9375 541.976562 545.625 541.515625 C 546.316406 541.054688 546.980469 540.5625 547.621094 540.035156 C 548.261719 539.507812 548.875 538.953125 549.460938 538.367188 C 550.046875 537.78125 550.601562 537.167969 551.128906 536.527344 C 551.65625 535.886719 552.148438 535.21875 552.609375 534.53125 C 553.070312 533.84375 553.496094 533.132812 553.886719 532.402344 C 554.277344 531.667969 554.632812 530.921875 554.949219 530.15625 C 555.265625 529.390625 555.542969 528.609375 555.785156 527.816406 C 556.027344 527.023438 556.226562 526.21875 556.386719 525.40625 C 556.550781 524.59375 556.671875 523.773438 556.753906 522.949219 C 556.835938 522.125 556.875 521.296875 556.875 520.46875 L 556.875 409.09375 C 556.875 408.265625 556.835938 407.4375 556.753906 406.613281 C 556.671875 405.789062 556.550781 404.96875 556.386719 404.15625 C 556.226562 403.34375 556.027344 402.539062 555.785156 401.746094 C 555.542969 400.953125 555.265625 400.171875 554.949219 399.40625 C 554.632812 398.640625 554.277344 397.890625 553.886719 397.160156 C 553.496094 396.429688 553.070312 395.71875 552.609375 395.03125 C 552.148438 394.339844 551.65625 393.675781 551.128906 393.035156 C 550.601562 392.394531 550.046875 391.78125 549.460938 391.195312 C 548.875 390.609375 548.261719 390.050781 547.621094 389.527344 C 546.980469 389 546.316406 388.507812 545.625 388.046875 C 544.9375 387.585938 544.226562 387.160156 543.496094 386.769531 C 542.761719 386.378906 542.015625 386.023438 541.25 385.707031 C 540.484375 385.390625 539.703125 385.113281 538.910156 384.871094 C 538.117188 384.628906 537.3125 384.429688 536.5 384.265625 C 535.6875 384.105469 534.867188 383.984375 534.042969 383.902344 C 533.21875 383.820312 532.390625 383.78125 531.5625 383.78125 Z M 531.5625 520.46875 L 278.4375 520.46875 L 278.4375 409.09375 L 333.71875 409.09375 C 334.433594 410.847656 335.214844 412.574219 336.058594 414.269531 C 336.902344 415.964844 337.808594 417.628906 338.777344 419.253906 C 339.746094 420.882812 340.773438 422.472656 341.859375 424.027344 C 342.949219 425.578125 344.089844 427.085938 345.289062 428.554688 C 346.488281 430.019531 347.742188 431.4375 349.046875 432.8125 C 350.355469 434.183594 351.707031 435.507812 353.113281 436.777344 C 354.515625 438.050781 355.96875 439.269531 357.460938 440.429688 C 358.957031 441.59375 360.492188 442.699219 362.070312 443.75 C 363.648438 444.796875 365.261719 445.789062 366.914062 446.714844 C 368.566406 447.644531 370.25 448.507812 371.964844 449.3125 C 373.683594 450.113281 375.425781 450.851562 377.199219 451.523438 C 378.96875 452.195312 380.761719 452.800781 382.578125 453.339844 C 384.394531 453.878906 386.230469 454.351562 388.082031 454.75 C 389.933594 455.152344 391.796875 455.484375 393.671875 455.746094 C 395.546875 456.011719 397.433594 456.203125 399.324219 456.324219 C 401.214844 456.445312 403.105469 456.496094 405 456.476562 C 406.894531 456.5 408.789062 456.453125 410.679688 456.332031 C 412.570312 456.214844 414.457031 456.027344 416.332031 455.765625 C 418.210938 455.503906 420.074219 455.175781 421.929688 454.777344 C 423.78125 454.375 425.617188 453.90625 427.433594 453.371094 C 429.25 452.832031 431.046875 452.230469 432.816406 451.558594 C 434.589844 450.886719 436.335938 450.148438 438.050781 449.347656 C 439.769531 448.546875 441.453125 447.679688 443.105469 446.75 C 444.757812 445.824219 446.375 444.835938 447.953125 443.785156 C 449.53125 442.734375 451.066406 441.628906 452.5625 440.464844 C 454.058594 439.300781 455.507812 438.082031 456.914062 436.808594 C 458.316406 435.535156 459.671875 434.214844 460.976562 432.839844 C 462.28125 431.464844 463.535156 430.042969 464.730469 428.574219 C 465.929688 427.105469 467.074219 425.597656 468.160156 424.042969 C 469.242188 422.488281 470.269531 420.898438 471.234375 419.265625 C 472.203125 417.636719 473.105469 415.972656 473.949219 414.273438 C 474.789062 412.578125 475.566406 410.847656 476.28125 409.09375 L 531.5625 409.09375 Z M 531.5625 520.46875 " fill-opacity="1" fill-rule="nonzero"/></svg>